<svg width="68" height="14" viewBox="0 0 68 14" fill="none" xmlns="http://www.w3.org/2000/svg">
<path d="M0.920578 4.32V3.2H5.30258V4.32H0.920578ZM0.920578 8.24V7.12H5.16258V8.24H0.920578ZM0.262578 3.2H1.45258V13H0.262578V3.2ZM9.01258 8.17H10.3426L13.8426 13H12.3726L9.01258 8.17ZM7.26258 3.2H8.45258V13H7.26258V3.2ZM7.92058 4.25V3.2H9.92258C10.5572 3.2 11.1219 3.32133 11.6166 3.564C12.1206 3.79733 12.5172 4.13333 12.8066 4.572C13.1052 5.01067 13.2546 5.53333 13.2546 6.14C13.2546 6.73733 13.1052 7.26 12.8066 7.708C12.5172 8.14667 12.1206 8.48733 11.6166 8.73C11.1219 8.96333 10.5572 9.08 9.92258 9.08H7.92058V8.03H9.92258C10.3426 8.03 10.7112 7.95533 11.0286 7.806C11.3552 7.65667 11.6072 7.442 11.7846 7.162C11.9712 6.882 12.0646 6.54133 12.0646 6.14C12.0646 5.73867 11.9712 5.398 11.7846 5.118C11.6072 4.838 11.3552 4.62333 11.0286 4.474C10.7112 4.32467 10.3426 4.25 9.92258 4.25H7.92058ZM15.0966 3.2H16.2866V13H15.0966V3.2ZM18.8922 10.032C19.1162 10.424 19.3495 10.7693 19.5922 11.068C19.8442 11.3667 20.1242 11.6 20.4322 11.768C20.7402 11.936 21.0902 12.02 21.4822 12.02C22.0049 12.02 22.4249 11.8753 22.7422 11.586C23.0595 11.2967 23.2182 10.928 23.2182 10.48C23.2182 10.0413 23.1155 9.69133 22.9102 9.43C22.7049 9.16867 22.4342 8.95867 22.0982 8.8C21.7715 8.632 21.4215 8.48267 21.0482 8.352C20.8055 8.268 20.5349 8.16067 20.2362 8.03C19.9375 7.89 19.6529 7.71733 19.3822 7.512C19.1115 7.29733 18.8875 7.036 18.7102 6.728C18.5422 6.42 18.4582 6.042 18.4582 5.594C18.4582 5.10867 18.5795 4.67467 18.8222 4.292C19.0649 3.90933 19.4009 3.61067 19.8302 3.396C20.2595 3.172 20.7495 3.06 21.3002 3.06C21.8322 3.06 22.2942 3.16267 22.6862 3.368C23.0875 3.564 23.4282 3.82067 23.7082 4.138C23.9882 4.446 24.2075 4.77267 24.3662 5.118L23.3442 5.706C23.2229 5.46333 23.0689 5.22533 22.8822 4.992C22.6955 4.75867 22.4669 4.56733 22.1962 4.418C21.9349 4.26867 21.6129 4.194 21.2302 4.194C20.6982 4.194 20.3109 4.32467 20.0682 4.586C19.8255 4.838 19.7042 5.12267 19.7042 5.44C19.7042 5.71067 19.7742 5.96267 19.9142 6.196C20.0542 6.42 20.2875 6.63467 20.6142 6.84C20.9502 7.036 21.4029 7.232 21.9722 7.428C22.2335 7.52133 22.5089 7.64267 22.7982 7.792C23.0875 7.94133 23.3535 8.13267 23.5962 8.366C23.8482 8.59 24.0535 8.86533 24.2122 9.192C24.3709 9.50933 24.4502 9.892 24.4502 10.34C24.4502 10.7693 24.3662 11.1567 24.1982 11.502C24.0395 11.8473 23.8155 12.1413 23.5262 12.384C23.2462 12.6267 22.9242 12.8133 22.5602 12.944C22.2055 13.0747 21.8322 13.14 21.4402 13.14C20.9082 13.14 20.4135 13.028 19.9562 12.804C19.5082 12.5707 19.1115 12.2673 18.7662 11.894C18.4302 11.5113 18.1549 11.1053 17.9402 10.676L18.8922 10.032ZM26.1981 3.2H27.3881V13H26.1981V3.2ZM31.2381 3.2H32.7081L28.4661 7.792L32.9181 13H31.4481L27.0241 7.82L31.2381 3.2ZM38.038 10.788L41.258 3.2H42.588L38.038 13.49L33.488 3.2H34.818L38.038 10.788ZM43.3236 10.06L43.7436 8.94H48.0836L48.5036 10.06H43.3236ZM45.8856 5.412L44.2336 9.304L44.1216 9.556L42.6656 13H41.3356L45.8856 2.71L50.4356 13H49.1056L47.6776 9.64L47.5656 9.36L45.8856 5.412ZM44.4576 1.828C44.4576 1.408 44.6023 1.072 44.8916 0.819999C45.1903 0.558666 45.5216 0.427999 45.8856 0.427999C46.2496 0.427999 46.5763 0.558666 46.8656 0.819999C47.1643 1.072 47.3136 1.408 47.3136 1.828C47.3136 2.248 47.1643 2.58867 46.8656 2.85C46.5763 3.102 46.2496 3.228 45.8856 3.228C45.5216 3.228 45.1903 3.102 44.8916 2.85C44.6023 2.58867 44.4576 2.248 44.4576 1.828ZM45.1716 1.828C45.1716 2.06133 45.2463 2.24333 45.3956 2.374C45.545 2.50467 45.7083 2.57 45.8856 2.57C46.063 2.57 46.2263 2.50467 46.3756 2.374C46.525 2.24333 46.5996 2.06133 46.5996 1.828C46.5996 1.59467 46.525 1.41267 46.3756 1.282C46.2263 1.15133 46.063 1.086 45.8856 1.086C45.7083 1.086 45.545 1.15133 45.3956 1.282C45.2463 1.41267 45.1716 1.59467 45.1716 1.828ZM53.3778 8.17H54.7078L58.2078 13H56.7378L53.3778 8.17ZM51.6278 3.2H52.8178V13H51.6278V3.2ZM52.2858 4.25V3.2H54.2878C54.9225 3.2 55.4871 3.32133 55.9818 3.564C56.4858 3.79733 56.8825 4.13333 57.1718 4.572C57.4705 5.01067 57.6198 5.53333 57.6198 6.14C57.6198 6.73733 57.4705 7.26 57.1718 7.708C56.8825 8.14667 56.4858 8.48733 55.9818 8.73C55.4871 8.96333 54.9225 9.08 54.2878 9.08H52.2858V8.03H54.2878C54.7078 8.03 55.0765 7.95533 55.3938 7.806C55.7205 7.65667 55.9725 7.442 56.1498 7.162C56.3365 6.882 56.4298 6.54133 56.4298 6.14C56.4298 5.73867 56.3365 5.398 56.1498 5.118C55.9725 4.838 55.7205 4.62333 55.3938 4.474C55.0765 4.32467 54.7078 4.25 54.2878 4.25H52.2858ZM59.4618 3.2H60.6518V13H59.4618V3.2ZM62.4018 13H60.1198V11.81H62.4018C62.9525 11.81 63.4565 11.726 63.9138 11.558C64.3711 11.3807 64.7631 11.1333 65.0898 10.816C65.4165 10.4893 65.6685 10.0973 65.8458 9.64C66.0231 9.18267 66.1118 8.66933 66.1118 8.1C66.1118 7.53067 66.0231 7.01733 65.8458 6.56C65.6685 6.10267 65.4165 5.71533 65.0898 5.398C64.7631 5.07133 64.3711 4.824 63.9138 4.656C63.4565 4.47867 62.9525 4.39 62.4018 4.39H60.1198V3.2H62.4018C63.3538 3.2 64.1985 3.40533 64.9358 3.816C65.6731 4.22667 66.2518 4.80067 66.6718 5.538C67.0918 6.266 67.3018 7.12 67.3018 8.1C67.3018 9.08 67.0918 9.93867 66.6718 10.676C66.2518 11.404 65.6731 11.9733 64.9358 12.384C64.1985 12.7947 63.3538 13 62.4018 13Z" fill="white"/>
</svg>
