<svg width="347" height="113" viewBox="0 0 347 113" fill="none" xmlns="http://www.w3.org/2000/svg">
<path d="M222 61.5C224.167 61.5 229 61.162 233 59M33.1646 56.2779C30.5571 60.6153 28.0785 64.4977 26 67.5C18.8 77.9 14.3333 82.8334 13 84C7.8 88.8 3.16667 86 1.5 84M33.1646 56.2779C41.8479 41.8342 51.9619 22.3441 53.5 13.5C55.1 4.30001 52.1667 1.33335 50.5 1.00001C48.8333 0.333348 44.7 0.700015 41.5 7.50001C37.5 16 35.5 42 34.5 48C34.2543 49.4741 33.7672 52.5177 33.1646 56.2779ZM33.1646 56.2779C31.5196 66.5441 29.0144 82.1526 28.2145 85.7488M28.2145 85.7488C28.1149 86.1967 28.0418 86.4582 28 86.5C27.9182 86.5818 27.997 86.3022 28.2145 85.7488ZM28.2145 85.7488C29.3265 82.92 34.0635 72.9365 39.5 67.5C44.7 62.3 48 65.3333 49 67.5C49.6667 68.5 51.1 72.1 51.5 78.5C51.9 84.9 55.6667 86.5 57.5 86.5C58.3333 86.6667 60.9 86.6 64.5 85C66.1604 84.262 68.9565 82.5322 71.5 80M71.5 80C74.4711 77.0421 77.5 73.5 79 71C79.4018 70.3303 82.5 65.2308 77 66.5C70.5 68 70 74 70.5 77.5C70.6015 78.2107 71.1391 79.3556 71.5 80ZM71.5 80C72.9163 82.5288 75.7875 84.5 79 84.5C83.5 84.5 87 84 99 71C103.12 66.5363 106.946 61.1295 110.214 55.8928M110.214 55.8928C116.463 45.8779 120.672 36.485 121 35.5C121.5 34 126.5 22.5 126.5 13.5C126.5 6.3 121.167 6.50001 118.5 7.50001C115.5 9.5 113.5 13.5 112.5 25.5C111.909 32.5974 110.837 44.6903 110.214 55.8928ZM110.214 55.8928C109.524 68.2973 110.432 79.6354 117 82C127.26 85.6937 137.521 71.5328 143.08 62.4685M143.08 62.4685C144.262 60.5413 145.232 58.8444 145.944 57.5986L146 57.5C150 50.5 156.5 39.5 158 33.5C159.5 27.5 160 22.5 158 17.5C156 12.5 145 10 141 28C138.365 39.8597 141.155 50.6342 143.08 62.4685ZM143.08 62.4685C144.077 68.5956 144.841 75.0069 144.5 82C147.167 73.3333 154.9 59.9 164.5 75.5C173.928 90.821 184.128 83.6037 188.279 77.8147M188.279 77.8147C188.355 77.7093 188.428 77.6043 188.5 77.5L194 69.5C195.5 67 197.5 63.3 191.5 64.5C185.5 65.7 186.333 73 187.5 76.5C187.713 76.9259 187.973 77.369 188.279 77.8147ZM188.279 77.8147C191.331 82.253 199.005 86.9509 211 77.5C217.292 72.543 221.661 66.8868 226 61.162M226 61.162C233.041 51.8734 238.525 42.5682 241 37C245 28 240 17 232.5 19C226.751 20.533 220.979 44.7875 226 61.162ZM226 61.162C227.529 66.1497 230.881 70.315 234.5 73C242.9 79 253.333 76.5 257.5 74.5C257.703 74.3527 257.932 74.1805 258.183 73.987M258.183 73.987C260.202 72.4296 263.577 69.4906 265 67C267 63.5 263.5 62 260 64.5C258.103 65.8547 256.941 70.0553 258.183 73.987ZM258.183 73.987C259.233 77.311 263 80.6346 267.5 81.5C277.9 83.5 286.5 69.3333 289.5 62L292 77.5C293.333 71.3333 300 61.8 316 73C336 87 344 73.5 344.5 71.5C345 69.5 347 62.5 340.5 59C334 55.5 327 59.5 327 67" stroke="#222222" stroke-width="1.4"/>
<path d="M24.5 93H347" stroke="#222222" stroke-width="1.4"/>
<path d="M174.551 33.4423C173.26 28.5743 173.042 22.8472 175.435 17.0588C177.648 18.8033 180.311 21.9992 181.68 26.4114C183.112 31.0278 183.14 37.0118 179.692 44.1154C177.909 41.792 175.761 38.0074 174.551 33.4423ZM184.525 25.0896C186.107 22.5571 190.248 17.3929 195.617 14.6087C196.431 17.7188 196.83 22.4126 195.563 27.132C194.243 32.0505 191.114 37.0038 184.719 40.2532C185.135 38.6956 185.546 36.5127 185.685 34.1056C185.851 31.2277 185.63 27.9825 184.525 25.0896ZM199.062 12.8325C203.554 10.4299 209.348 9.69358 212.215 9.60862C213.419 24.3121 208.603 33.452 202.143 38.9428C195.903 44.2462 188.062 46.2008 182.428 46.3853L183.161 44.5027C193.096 40.8694 197.851 34.7963 199.695 28.6169C201.467 22.6812 200.534 16.7149 199.062 12.8325ZM186.4 14C186.4 15.3255 185.325 16.4 184 16.4C182.675 16.4 181.6 15.3255 181.6 14C181.6 12.6745 182.675 11.6 184 11.6C185.325 11.6 186.4 12.6745 186.4 14ZM197.4 7.5C197.4 8.54934 196.549 9.4 195.5 9.4C194.451 9.4 193.6 8.54934 193.6 7.5C193.6 6.45066 194.451 5.6 195.5 5.6C196.549 5.6 197.4 6.45066 197.4 7.5ZM206.4 4C206.4 4.22091 206.221 4.4 206 4.4C205.779 4.4 205.6 4.22091 205.6 4C205.6 3.77909 205.779 3.6 206 3.6C206.221 3.6 206.4 3.77909 206.4 4Z" stroke="#222222" stroke-width="1.2"/>
<path d="M271.921 100.32V99.2H276.303V100.32H271.921ZM271.921 104.24V103.12H276.163V104.24H271.921ZM271.263 99.2H272.453V109H271.263V99.2ZM280.013 104.17H281.343L284.843 109H283.373L280.013 104.17ZM278.263 99.2H279.453V109H278.263V99.2ZM278.921 100.25V99.2H280.923C281.557 99.2 282.122 99.3213 282.617 99.564C283.121 99.7973 283.517 100.133 283.807 100.572C284.105 101.011 284.255 101.533 284.255 102.14C284.255 102.737 284.105 103.26 283.807 103.708C283.517 104.147 283.121 104.487 282.617 104.73C282.122 104.963 281.557 105.08 280.923 105.08H278.921V104.03H280.923C281.343 104.03 281.711 103.955 282.029 103.806C282.355 103.657 282.607 103.442 282.785 103.162C282.971 102.882 283.065 102.541 283.065 102.14C283.065 101.739 282.971 101.398 282.785 101.118C282.607 100.838 282.355 100.623 282.029 100.474C281.711 100.325 281.343 100.25 280.923 100.25H278.921ZM286.097 99.2H287.287V109H286.097V99.2ZM289.892 106.032C290.116 106.424 290.35 106.769 290.592 107.068C290.844 107.367 291.124 107.6 291.432 107.768C291.74 107.936 292.09 108.02 292.482 108.02C293.005 108.02 293.425 107.875 293.742 107.586C294.06 107.297 294.218 106.928 294.218 106.48C294.218 106.041 294.116 105.691 293.91 105.43C293.705 105.169 293.434 104.959 293.098 104.8C292.772 104.632 292.422 104.483 292.048 104.352C291.806 104.268 291.535 104.161 291.236 104.03C290.938 103.89 290.653 103.717 290.382 103.512C290.112 103.297 289.888 103.036 289.71 102.728C289.542 102.42 289.458 102.042 289.458 101.594C289.458 101.109 289.58 100.675 289.822 100.292C290.065 99.9093 290.401 99.6107 290.83 99.396C291.26 99.172 291.75 99.06 292.3 99.06C292.832 99.06 293.294 99.1627 293.686 99.368C294.088 99.564 294.428 99.8207 294.708 100.138C294.988 100.446 295.208 100.773 295.366 101.118L294.344 101.706C294.223 101.463 294.069 101.225 293.882 100.992C293.696 100.759 293.467 100.567 293.196 100.418C292.935 100.269 292.613 100.194 292.23 100.194C291.698 100.194 291.311 100.325 291.068 100.586C290.826 100.838 290.704 101.123 290.704 101.44C290.704 101.711 290.774 101.963 290.914 102.196C291.054 102.42 291.288 102.635 291.614 102.84C291.95 103.036 292.403 103.232 292.972 103.428C293.234 103.521 293.509 103.643 293.798 103.792C294.088 103.941 294.354 104.133 294.596 104.366C294.848 104.59 295.054 104.865 295.212 105.192C295.371 105.509 295.45 105.892 295.45 106.34C295.45 106.769 295.366 107.157 295.198 107.502C295.04 107.847 294.816 108.141 294.526 108.384C294.246 108.627 293.924 108.813 293.56 108.944C293.206 109.075 292.832 109.14 292.44 109.14C291.908 109.14 291.414 109.028 290.956 108.804C290.508 108.571 290.112 108.267 289.766 107.894C289.43 107.511 289.155 107.105 288.94 106.676L289.892 106.032ZM297.198 99.2H298.388V109H297.198V99.2ZM302.238 99.2H303.708L299.466 103.792L303.918 109H302.448L298.024 103.82L302.238 99.2ZM309.038 106.788L312.258 99.2H313.588L309.038 109.49L304.488 99.2H305.818L309.038 106.788ZM314.324 106.06L314.744 104.94H319.084L319.504 106.06H314.324ZM316.886 101.412L315.234 105.304L315.122 105.556L313.666 109H312.336L316.886 98.71L321.436 109H320.106L318.678 105.64L318.566 105.36L316.886 101.412ZM315.458 97.828C315.458 97.408 315.602 97.072 315.892 96.82C316.19 96.5587 316.522 96.428 316.886 96.428C317.25 96.428 317.576 96.5587 317.866 96.82C318.164 97.072 318.314 97.408 318.314 97.828C318.314 98.248 318.164 98.5887 317.866 98.85C317.576 99.102 317.25 99.228 316.886 99.228C316.522 99.228 316.19 99.102 315.892 98.85C315.602 98.5887 315.458 98.248 315.458 97.828ZM316.172 97.828C316.172 98.0613 316.246 98.2433 316.396 98.374C316.545 98.5047 316.708 98.57 316.886 98.57C317.063 98.57 317.226 98.5047 317.376 98.374C317.525 98.2433 317.6 98.0613 317.6 97.828C317.6 97.5947 317.525 97.4127 317.376 97.282C317.226 97.1513 317.063 97.086 316.886 97.086C316.708 97.086 316.545 97.1513 316.396 97.282C316.246 97.4127 316.172 97.5947 316.172 97.828ZM324.378 104.17H325.708L329.208 109H327.738L324.378 104.17ZM322.628 99.2H323.818V109H322.628V99.2ZM323.286 100.25V99.2H325.288C325.922 99.2 326.487 99.3213 326.982 99.564C327.486 99.7973 327.882 100.133 328.172 100.572C328.47 101.011 328.62 101.533 328.62 102.14C328.62 102.737 328.47 103.26 328.172 103.708C327.882 104.147 327.486 104.487 326.982 104.73C326.487 104.963 325.922 105.08 325.288 105.08H323.286V104.03H325.288C325.708 104.03 326.076 103.955 326.394 103.806C326.72 103.657 326.972 103.442 327.15 103.162C327.336 102.882 327.43 102.541 327.43 102.14C327.43 101.739 327.336 101.398 327.15 101.118C326.972 100.838 326.72 100.623 326.394 100.474C326.076 100.325 325.708 100.25 325.288 100.25H323.286ZM330.462 99.2H331.652V109H330.462V99.2ZM333.402 109H331.12V107.81H333.402C333.952 107.81 334.456 107.726 334.914 107.558C335.371 107.381 335.763 107.133 336.09 106.816C336.416 106.489 336.668 106.097 336.846 105.64C337.023 105.183 337.112 104.669 337.112 104.1C337.112 103.531 337.023 103.017 336.846 102.56C336.668 102.103 336.416 101.715 336.09 101.398C335.763 101.071 335.371 100.824 334.914 100.656C334.456 100.479 333.952 100.39 333.402 100.39H331.12V99.2H333.402C334.354 99.2 335.198 99.4053 335.936 99.816C336.673 100.227 337.252 100.801 337.672 101.538C338.092 102.266 338.302 103.12 338.302 104.1C338.302 105.08 338.092 105.939 337.672 106.676C337.252 107.404 336.673 107.973 335.936 108.384C335.198 108.795 334.354 109 333.402 109Z" fill="#222222"/>
</svg>
